<svg xmlns="http://www.w3.org/2000/svg" viewBox="0 0 512 512">
    <g>
        <path d="M369.8,56.9h85.3v85.3c0,15.7,12.7,28.4,28.4,28.4s28.4-12.7,28.4-28.4V28.4c0-7.5-3-14.8-8.3-20.1S491,0,483.6,0H369.8   c-15.7,0-28.4,12.7-28.4,28.4C341.3,44.2,354.1,56.9,369.8,56.9z"/>
        <path d="M333,219.2L503.7,48.6c11.1-11.1,11.1-29.1,0-40.2s-29.1-11.1-40.2,0L292.8,179c-11.1,11.1-11.1,29.1,0,40.2   C303.9,230.3,321.9,230.3,333,219.2"/>
        <path d="M142.2,455.1H56.9v-85.3c0-15.7-12.7-28.4-28.4-28.4S0,354.1,0,369.8v113.8c0,7.5,3,14.8,8.3,20.1   C13.6,509,21,512,28.4,512h113.8c15.7,0,28.4-12.7,28.4-28.4C170.7,467.8,157.9,455.1,142.2,455.1z"/>
        <path d="M48.6,503.7L219.2,333c11.1-11.1,11.1-29.1,0-40.2c-11.1-11.1-29.1-11.1-40.2,0L8.3,463.4c-11.1,11.1-11.1,29.1,0,40.2   C19.4,514.8,37.4,514.8,48.6,503.7"/>
        <path d="M369.8,512h113.8c7.5,0,14.8-3,20.1-8.3c5.3-5.3,8.3-12.6,8.3-20.1V369.8c0-15.7-12.7-28.4-28.4-28.4s-28.4,12.7-28.4,28.4   v85.3h-85.3c-15.7,0-28.4,12.7-28.4,28.4C341.3,499.3,354.1,512,369.8,512z"/>
        <path d="M292.8,333l170.7,170.7c11.1,11.1,29.1,11.1,40.2,0c11.1-11.1,11.1-29.1,0-40.2L333,292.8c-11.1-11.1-29.1-11.1-40.2,0   C281.7,303.9,281.7,321.9,292.8,333"/>
        <path d="M142.2,0H28.4C21,0,13.6,3,8.3,8.3C3,13.6,0,21,0,28.4v113.8c0,15.7,12.7,28.4,28.4,28.4s28.4-12.7,28.4-28.4V56.9h85.3   c15.7,0,28.4-12.7,28.4-28.4C170.7,12.7,157.9,0,142.2,0z"/>
        <path d="M8.3,48.6L179,219.2c11.1,11.1,29.1,11.1,40.2,0s11.1-29.1,0-40.2L48.6,8.3C37.4-2.8,19.4-2.8,8.3,8.3   C-2.8,19.4-2.8,37.4,8.3,48.6"/>
    </g>
</svg>