<svg xmlns="http://www.w3.org/2000/svg" viewBox="0 0 512 512">
    <g>
        <path d="M76.8,204.8h102.4c6.7,0,13.3-2.7,18.1-7.5s7.5-11.4,7.5-18.1V76.8c0-14.1-11.5-25.6-25.6-25.6   c-14.1,0-25.6,11.5-25.6,25.6v76.8H76.8c-14.1,0-25.6,11.5-25.6,25.6C51.2,193.3,62.7,204.8,76.8,204.8z"/>
        <path d="M7.5,43.7l153.6,153.6c10,10,26.2,10,36.2,0c10-10,10-26.2,0-36.2L43.7,7.5c-10-10-26.2-10-36.2,0   C-2.5,17.5-2.5,33.7,7.5,43.7"/>
        <path d="M76.8,358.4h76.8v76.8c0,14.1,11.5,25.6,25.6,25.6c14.1,0,25.6-11.5,25.6-25.6V332.8c0-6.7-2.7-13.3-7.5-18.1   s-11.4-7.5-18.1-7.5H76.8c-14.1,0-25.6,11.5-25.6,25.6C51.2,346.9,62.7,358.4,76.8,358.4z"/>
        <path d="M43.7,504.5l153.6-153.6c10-10,10-26.2,0-36.2s-26.2-10-36.2,0L7.5,468.3c-10,10-10,26.2,0,36.2   C17.5,514.5,33.7,514.5,43.7,504.5"/>
        <path d="M435.2,153.6h-76.8V76.8c0-14.1-11.5-25.6-25.6-25.6s-25.6,11.5-25.6,25.6v102.4c0,6.7,2.7,13.3,7.5,18.1   c4.8,4.8,11.4,7.5,18.1,7.5h102.4c14.1,0,25.6-11.5,25.6-25.6C460.8,165.1,449.3,153.6,435.2,153.6z"/>
        <path d="M350.9,197.3L504.5,43.7c10-10,10-26.2,0-36.2s-26.2-10-36.2,0L314.7,161.1c-10,10-10,26.2,0,36.2S340.9,207.3,350.9,197.3   "/>
        <path d="M435.2,307.2H332.8c-6.7,0-13.3,2.7-18.1,7.5c-4.8,4.8-7.5,11.4-7.5,18.1v102.4c0,14.1,11.5,25.6,25.6,25.6   s25.6-11.5,25.6-25.6v-76.8h76.8c14.1,0,25.6-11.5,25.6-25.6C460.8,318.7,449.3,307.2,435.2,307.2z"/>
        <path d="M314.7,350.9l153.6,153.6c10,10,26.2,10,36.2,0c10-10,10-26.2,0-36.2L350.9,314.7c-10-10-26.2-10-36.2,0   S304.7,340.9,314.7,350.9"/>
    </g>
</svg>